# xmcd CD database file
#
# Track frame offsets:
#	150
#	10110
#	21911
#	34706
#	47423
#	56715
#	68354
#	78935
#	89392
#	102224
#	117846
#	129775
#
# Disc length: 1931 seconds
#
# Revision: 0
# Processed by: cddbd v1.5.2PL0 Copyright (c) Steve Scherf et al.
# Submitted via: CDex 1.70beta2
#
DISCID=8407890c
DTITLE=Re Simpson - Truck Drivin'Man
DYEAR=1900
DGENRE=Country
TTITLE0=The ballad of Billie Jones
TTITLE1=Diesel, smoke and dangerous curves
TTITLE2=Roll truck roll
TTITLE3=Ole Ben
TTITLE4=Big Mack
TTITLE5=Take me home
TTITLE6=Truck drivin'man
TTITLE7=The highway patrol
TTITLE8=Old Sam
TTITLE9=Sleeper five by two
TTITLE10=Ceretainly
TTITLE11=Born to be a trucker
EXTD=
EXTT0=
EXTT1=
EXTT2=
EXTT3=
EXTT4=
EXTT5=
EXTT6=
EXTT7=
EXTT8=
EXTT9=
EXTT10=
EXTT11=
PLAYORDER=
